<mxfile host="app.diagrams.net" modified="2023-02-21T05:56:47.420Z" agent="5.0 (Windows NT 10.0; Win64; x64) AppleWebKit/537.36 (KHTML, like Gecko) Chrome/110.0.0.0 Safari/537.36" etag="iQENiAlm9fXOQJsrLdj6" version="20.8.21" type="github">
  <diagram name="Page-1" id="867akhaV9eCVJc7olUrR">
    <mxGraphModel dx="1313" dy="676" grid="1" gridSize="10" guides="1" tooltips="1" connect="1" arrows="1" fold="1" page="1" pageScale="1" pageWidth="827" pageHeight="1169" math="0" shadow="0">
      <root>
        <mxCell id="0" />
        <mxCell id="1" parent="0" />
        <mxCell id="Dw5fjsaqUqWkbC5GLFcc-2" value="" style="rounded=0;whiteSpace=wrap;html=1;" vertex="1" parent="1">
          <mxGeometry x="194" y="214" width="440" height="740" as="geometry" />
        </mxCell>
        <mxCell id="Dw5fjsaqUqWkbC5GLFcc-4" value="Receptionist" style="shape=umlActor;verticalLabelPosition=bottom;verticalAlign=top;html=1;outlineConnect=0;" vertex="1" parent="1">
          <mxGeometry x="80" y="290" width="30" height="60" as="geometry" />
        </mxCell>
        <mxCell id="Dw5fjsaqUqWkbC5GLFcc-5" value="Patient" style="shape=umlActor;verticalLabelPosition=bottom;verticalAlign=top;html=1;outlineConnect=0;" vertex="1" parent="1">
          <mxGeometry x="80" y="660" width="30" height="60" as="geometry" />
        </mxCell>
        <mxCell id="Dw5fjsaqUqWkbC5GLFcc-6" value="Identity Service" style="shape=cylinder3;whiteSpace=wrap;html=1;boundedLbl=1;backgroundOutline=1;size=15;" vertex="1" parent="1">
          <mxGeometry x="690" y="280" width="60" height="80" as="geometry" />
        </mxCell>
        <mxCell id="Dw5fjsaqUqWkbC5GLFcc-7" value="Inventory Service" style="shape=cylinder3;whiteSpace=wrap;html=1;boundedLbl=1;backgroundOutline=1;size=15;" vertex="1" parent="1">
          <mxGeometry x="690" y="440" width="60" height="80" as="geometry" />
        </mxCell>
      </root>
    </mxGraphModel>
  </diagram>
</mxfile>
